# xmcd CD database file
#
# Track frame offsets:
#	150
#	18002
#	31640
#	52680
#	73467
#	79987
#	98292
#	113815
#	131950
#	150020
#	166270
#	176555
#
# Disc length: 2621 seconds
#
# Revision: 0
# Processed by: cddbd v1.4PL0 Copyright (c) Steve Scherf et al.
# Submitted via: CDex 1.50
#
DISCID=820a3b0c
DTITLE=Fatty George, Clarinet - Fatty's Saloon
DYEAR=1988
DGENRE=Jazz
TTITLE0=Milenberg Joys
TTITLE1=Hard Hearted Hannah
TTITLE2=Georgia On My Mind
TTITLE3=Mandy Make Up Your Mind
TTITLE4=Lonesome Road
TTITLE5=There'll Be Some Changes Made
TTITLE6=I'll Be a Friend With Pleasure
TTITLE7=Lazy River
TTITLE8=Oh Baby
TTITLE9=If I Could Be An Hour To Night
TTITLE10=When You're Smilin'
TTITLE11=After You've Gone
EXTD=YEAR: 1988
EXTT0=
EXTT1=
EXTT2=
EXTT3=
EXTT4=
EXTT5=
EXTT6=
EXTT7=
EXTT8=
EXTT9=
EXTT10=
EXTT11=
PLAYORDER=
